<svg class="w-14 mr-3" width="100%" height="100%" viewBox="0 0 903 448" fill="none"
    xmlns="http://www.w3.org/2000/svg">
    <path
        d="M616.15 425.564L641.464 397.945L641.464 353.5L631.464 353.5L631.464 392H600C597.239 392 595 394.239 595 397C595 399.761 597.239 402 600 402H624.183L608.778 418.807C606.912 420.843 607.05 424.006 609.086 425.872C611.122 427.738 614.284 427.6 616.15 425.564Z"
        fill="#666666"></path>
    <path
        d="M677.15 425.564L702.464 397.945L702.464 353.5L692.464 353.5L692.464 392H661C658.239 392 656 394.239 656 397C656 399.761 658.239 402 661 402H685.183L669.778 418.807C667.912 420.843 668.05 424.006 670.086 425.872C672.122 427.738 675.284 427.6 677.15 425.564Z"
        fill="#666666"></path>
    <path
        d="M498 130C498 151.815 473.972 174 450.5 174C434.5 152 439.5 148.815 439.5 127C439.5 105.185 427.028 95 450.5 95C473.972 95 498 108.185 498 130Z"
        fill="#E69636"></path>
    <path
        d="M470 119C463.5 143 461 152 461 180C436.976 180 427.5 162.428 427.5 131.5C427.5 100.572 446.976 68 471 68C495.024 68 470 88.0721 470 119Z"
        fill="#F3B14D"></path>
    <path
        d="M747 338.5C737.5 376.5 656.5 390 583.606 344.234C540.106 314.213 514.106 275.5 514.106 210C514.106 165.118 549.252 128.734 592.606 128.734C635.961 128.734 728.5 293.5 747 338.5Z"
        fill="#DA6270"></path>
    <path
        d="M747.5 342C737.5 375 668 380.5 625.5 357.5C582 328.5 557 274.854 557 231.5C557 188.146 592.146 153 635.5 153C678.854 153 742.601 305.5 747.5 342Z"
        fill="#4E87BF"></path>
    <path
        d="M618.5 95.5C618.5 132.503 581.645 170 540.5 170C499.355 170 452 125.003 452 88C452 50.9969 485.355 21 526.5 21C567.645 21 603 52.5 618.5 95.5Z"
        fill="#85B160"></path>
    <path
        d="M497.5 152L607.5 73.5L669 147C725.688 224.065 805 365.5 811 375C817 384.5 817 403 789 380.5C761 358 749 346 749 346C749 346 577.5 195 560.5 208C543.5 221 549 292.5 549 292.5C549 292.5 515 256 518.5 208C522 160 497.5 152 497.5 152Z"
        fill="#85B160"></path>
    <path
        d="M706.866 228.787C728.527 271.8 740.627 315.868 747.399 341.678C697.273 358.838 647.401 339.825 611.848 305.329C576.203 270.743 555.05 220.685 562.481 176.156C563.704 173.685 564.704 170.335 565.835 166.546C566.098 165.664 566.368 164.758 566.65 163.833C568.163 158.872 570.027 153.316 572.941 147.861C578.739 137.005 588.71 126.512 608.442 122.026C653.712 143.48 685.1 185.568 706.866 228.787Z"
        fill="#689145" stroke="#689145"></path>
    <circle cx="499" cy="83" r="12" fill="#252B2F"></circle>
    <path
        d="M254.933 29L263.446 112.393H256.277C248.511 86.6879 236.937 67.7824 221.554 55.6769C206.321 43.422 186.458 37.2945 161.965 37.2945H149.42C129.856 37.2945 115.967 41.1055 107.753 48.7275C99.6882 56.2 95.6559 68.7538 95.6559 86.389V162.609H125.45C148.002 162.609 164.43 159.097 174.734 152.073C185.039 144.899 192.133 132.046 196.016 113.514H202.737V226.947H196.016C193.029 212.002 188.997 200.644 183.919 192.873C178.991 184.952 171.972 179.422 162.861 176.284C153.901 172.996 141.654 171.352 126.122 171.352H95.6559V268.42C95.6559 283.215 97 294.574 99.6882 302.495C102.526 310.266 107.38 315.721 114.249 318.859C121.269 321.998 131.051 323.567 143.596 323.567H164.206C184.517 323.567 203.782 317.29 222.002 304.736C242.164 290.688 261.952 271.11 281.367 246.002L283.159 243.536H291L264.566 335H0V328.051C16.1293 325.36 27.853 319.158 35.1709 309.444C40.846 302.27 43.6836 287.998 43.6836 266.626V97.3736C43.6836 83.7736 42.9369 73.9099 41.4434 67.7824C39.95 61.6549 37.1871 56.4242 33.1547 52.0901C25.6874 43.7209 14.6359 38.3407 0 35.9495V29H254.933ZM244.132 37.2945H211.873C220.236 40.7319 226.957 44.4681 232.035 48.5033C237.112 52.5385 242.788 58.7407 249.06 67.1099L244.132 37.2945ZM193.607 149.969C189.426 153.855 186.14 159.545 183.751 161.04C181.51 162.385 176.731 164.477 169.413 167.316C177.777 169.708 188 176.284 193.607 184.888V149.969ZM254.661 323.567L267.206 281.87C261.829 287.848 256.453 293.303 251.076 298.235C245.849 303.018 239.875 307.576 233.155 311.91C226.584 316.244 219.863 320.13 212.993 323.567H254.661ZM36.3626 323.567H101.776L93.0393 317.066C87.9615 313.33 84.6759 310.341 83.1824 308.099C81.8383 305.857 81.1663 302.495 81.1663 298.011C81.1663 295.62 81.0916 294.051 80.9423 293.303C80.9423 292.407 80.9423 291.51 80.9423 290.613V286.802V77.1978V73.3868C80.9423 72.4901 80.9423 71.5934 80.9423 70.6967C81.0916 69.8 81.1663 68.2308 81.1663 65.989C81.1663 61.5055 81.913 58.0681 83.4065 55.6769C85.0493 53.1363 88.2602 50.222 93.0393 46.9341L105.808 37.5187H32.3303L45.0993 46.9341C50.1771 50.6703 53.388 53.6593 54.7321 55.9011C56.2256 58.1429 56.9723 61.5055 56.9723 65.989C57.1216 68.5297 57.1963 70.9956 57.1963 73.3868V77.1978V286.802V290.613C57.1963 293.004 57.1216 295.47 56.9723 298.011C56.9723 302.644 56.3002 306.081 54.9561 308.323C53.612 310.415 50.3264 313.33 45.0993 317.066L36.3626 323.567Z"
        fill="#e5e7eb"></path>
    <path d="M365.24 15.84V431.36H412.76V447.2H347V0H412.76V15.84H365.24Z" fill="#e5e7eb"></path>
    <path d="M884.52 15.84V431.36H837V447.2H902.76V0H837V15.84H884.52Z" fill="#e5e7eb"></path>
    <path fill-rule="evenodd" clip-rule="evenodd"
        d="M504.635 153.996C506.019 151.606 509.078 150.791 511.467 152.175C525.541 160.325 545.545 160.023 557.555 148.842C559.576 146.96 562.74 147.073 564.621 149.094C566.503 151.116 566.39 154.279 564.369 156.161C548.455 170.977 523.459 170.675 506.456 160.828C504.066 159.444 503.251 156.385 504.635 153.996Z"
        fill="#689145"></path>
</svg>